<mxfile host="app.diagrams.net" modified="2024-02-03T22:39:11.879Z" agent="Mozilla/5.0 (Macintosh; Intel Mac OS X 10_15_7) AppleWebKit/605.1.15 (KHTML, like Gecko) Version/17.2.1 Safari/605.1.15" etag="7VX13iWCzXdYpZpXgTkz" version="23.1.1" type="github">
  <diagram name="Strona-1" id="LoIhmsM3k1W91ekIoNwY">
    <mxGraphModel dx="1406" dy="703" grid="1" gridSize="10" guides="1" tooltips="1" connect="1" arrows="1" fold="1" page="1" pageScale="1" pageWidth="827" pageHeight="1169" math="0" shadow="0">
      <root>
        <mxCell id="0" />
        <mxCell id="1" parent="0" />
        <mxCell id="3Ul-htmzRU0Y6KNiJjNp-1" style="edgeStyle=orthogonalEdgeStyle;rounded=0;orthogonalLoop=1;jettySize=auto;html=1;exitX=0.5;exitY=1;exitDx=0;exitDy=0;entryX=0.5;entryY=0;entryDx=0;entryDy=0;" edge="1" parent="1" source="0YZWf_vBpHwigLN9SsZy-18" target="rpIl013AEwX_hjBP_hCJ-45">
          <mxGeometry relative="1" as="geometry" />
        </mxCell>
        <mxCell id="0YZWf_vBpHwigLN9SsZy-18" value="Przejście z procedury testowej Nr 6" style="rounded=0;whiteSpace=wrap;html=1;" parent="1" vertex="1">
          <mxGeometry x="38" y="65" width="120" height="60" as="geometry" />
        </mxCell>
        <mxCell id="0YZWf_vBpHwigLN9SsZy-66" value="PROCEDURA TESTOWA NR 7" style="text;html=1;strokeColor=none;fillColor=none;align=center;verticalAlign=middle;whiteSpace=wrap;rounded=0;fontStyle=1;fontSize=15;" parent="1" vertex="1">
          <mxGeometry x="317" y="20" width="194" height="30" as="geometry" />
        </mxCell>
        <mxCell id="u_BtvG3M7fM2tkYKGzCa-58" style="edgeStyle=orthogonalEdgeStyle;rounded=0;orthogonalLoop=1;jettySize=auto;html=1;exitX=0.5;exitY=1;exitDx=0;exitDy=0;" parent="1" edge="1">
          <mxGeometry relative="1" as="geometry">
            <mxPoint x="540.0234939759034" y="69.98795180722902" as="targetPoint" />
            <Array as="points">
              <mxPoint x="98" y="1080" />
              <mxPoint x="420" y="1080" />
              <mxPoint x="420" y="70" />
            </Array>
            <mxPoint x="98" y="1030.0000000000002" as="sourcePoint" />
          </mxGeometry>
        </mxCell>
        <mxCell id="3Ul-htmzRU0Y6KNiJjNp-30" value="TAK" style="edgeLabel;html=1;align=center;verticalAlign=middle;resizable=0;points=[];" vertex="1" connectable="0" parent="u_BtvG3M7fM2tkYKGzCa-58">
          <mxGeometry x="-0.9561" relative="1" as="geometry">
            <mxPoint y="-3" as="offset" />
          </mxGeometry>
        </mxCell>
        <mxCell id="rpIl013AEwX_hjBP_hCJ-48" style="edgeStyle=orthogonalEdgeStyle;rounded=0;orthogonalLoop=1;jettySize=auto;html=1;exitX=1;exitY=0.5;exitDx=0;exitDy=0;entryX=0;entryY=0.5;entryDx=0;entryDy=0;" parent="1" source="rpIl013AEwX_hjBP_hCJ-45" target="rpIl013AEwX_hjBP_hCJ-47" edge="1">
          <mxGeometry relative="1" as="geometry" />
        </mxCell>
        <mxCell id="rpIl013AEwX_hjBP_hCJ-73" value="TAK" style="edgeLabel;html=1;align=center;verticalAlign=middle;resizable=0;points=[];" parent="rpIl013AEwX_hjBP_hCJ-48" vertex="1" connectable="0">
          <mxGeometry x="-0.8553" y="1" relative="1" as="geometry">
            <mxPoint x="-17" y="1" as="offset" />
          </mxGeometry>
        </mxCell>
        <mxCell id="rpIl013AEwX_hjBP_hCJ-50" value="" style="edgeStyle=orthogonalEdgeStyle;rounded=0;orthogonalLoop=1;jettySize=auto;html=1;" parent="1" source="rpIl013AEwX_hjBP_hCJ-45" target="rpIl013AEwX_hjBP_hCJ-49" edge="1">
          <mxGeometry relative="1" as="geometry" />
        </mxCell>
        <mxCell id="rpIl013AEwX_hjBP_hCJ-68" value="NIE" style="edgeLabel;html=1;align=center;verticalAlign=middle;resizable=0;points=[];" parent="rpIl013AEwX_hjBP_hCJ-50" vertex="1" connectable="0">
          <mxGeometry x="0.0825" y="2" relative="1" as="geometry">
            <mxPoint as="offset" />
          </mxGeometry>
        </mxCell>
        <mxCell id="rpIl013AEwX_hjBP_hCJ-45" value="Czy bez wybrania użytkownika można zmienić hasło?" style="rhombus;whiteSpace=wrap;html=1;rounded=0;" parent="1" vertex="1">
          <mxGeometry x="20" y="170" width="156" height="80" as="geometry" />
        </mxCell>
        <mxCell id="rpIl013AEwX_hjBP_hCJ-47" value="Zgłoś błąd, opisz go w rejestrz&lt;span style=&quot;white-space: pre;&quot;&gt;e,  napisz &lt;br/&gt;czy pojawił się&lt;br/&gt; komunikat &lt;br&gt;o błędzie &lt;/span&gt;" style="whiteSpace=wrap;html=1;rounded=0;" parent="1" vertex="1">
          <mxGeometry x="280" y="620" width="120" height="100" as="geometry" />
        </mxCell>
        <mxCell id="rpIl013AEwX_hjBP_hCJ-51" style="edgeStyle=orthogonalEdgeStyle;rounded=0;orthogonalLoop=1;jettySize=auto;html=1;exitX=1;exitY=0.5;exitDx=0;exitDy=0;entryX=0;entryY=0.5;entryDx=0;entryDy=0;" parent="1" source="rpIl013AEwX_hjBP_hCJ-49" target="rpIl013AEwX_hjBP_hCJ-47" edge="1">
          <mxGeometry relative="1" as="geometry" />
        </mxCell>
        <mxCell id="rpIl013AEwX_hjBP_hCJ-72" value="TAK" style="edgeLabel;html=1;align=center;verticalAlign=middle;resizable=0;points=[];" parent="rpIl013AEwX_hjBP_hCJ-51" vertex="1" connectable="0">
          <mxGeometry x="-0.8477" y="2" relative="1" as="geometry">
            <mxPoint x="-11" y="2" as="offset" />
          </mxGeometry>
        </mxCell>
        <mxCell id="rpIl013AEwX_hjBP_hCJ-53" value="NIE" style="edgeStyle=orthogonalEdgeStyle;rounded=0;orthogonalLoop=1;jettySize=auto;html=1;" parent="1" source="rpIl013AEwX_hjBP_hCJ-49" edge="1">
          <mxGeometry relative="1" as="geometry">
            <mxPoint x="98" y="400" as="targetPoint" />
          </mxGeometry>
        </mxCell>
        <mxCell id="rpIl013AEwX_hjBP_hCJ-49" value="Czy po wybraniu usera można zmienić hasło na puste?" style="rhombus;whiteSpace=wrap;html=1;rounded=0;" parent="1" vertex="1">
          <mxGeometry x="20" y="280" width="156" height="80" as="geometry" />
        </mxCell>
        <mxCell id="3Ul-htmzRU0Y6KNiJjNp-11" style="edgeStyle=orthogonalEdgeStyle;rounded=0;orthogonalLoop=1;jettySize=auto;html=1;exitX=0.5;exitY=1;exitDx=0;exitDy=0;entryX=0.5;entryY=0;entryDx=0;entryDy=0;" edge="1" parent="1" source="rpIl013AEwX_hjBP_hCJ-58" target="3Ul-htmzRU0Y6KNiJjNp-4">
          <mxGeometry relative="1" as="geometry" />
        </mxCell>
        <mxCell id="3Ul-htmzRU0Y6KNiJjNp-12" value="TAK" style="edgeLabel;html=1;align=center;verticalAlign=middle;resizable=0;points=[];" vertex="1" connectable="0" parent="3Ul-htmzRU0Y6KNiJjNp-11">
          <mxGeometry x="-0.4069" y="-1" relative="1" as="geometry">
            <mxPoint x="1" y="8" as="offset" />
          </mxGeometry>
        </mxCell>
        <mxCell id="3Ul-htmzRU0Y6KNiJjNp-21" style="edgeStyle=orthogonalEdgeStyle;rounded=0;orthogonalLoop=1;jettySize=auto;html=1;exitX=1;exitY=0.5;exitDx=0;exitDy=0;entryX=0;entryY=0.5;entryDx=0;entryDy=0;" edge="1" parent="1" source="rpIl013AEwX_hjBP_hCJ-58" target="rpIl013AEwX_hjBP_hCJ-47">
          <mxGeometry relative="1" as="geometry" />
        </mxCell>
        <mxCell id="3Ul-htmzRU0Y6KNiJjNp-22" value="NIE" style="edgeLabel;html=1;align=center;verticalAlign=middle;resizable=0;points=[];" vertex="1" connectable="0" parent="3Ul-htmzRU0Y6KNiJjNp-21">
          <mxGeometry x="-0.7946" y="1" relative="1" as="geometry">
            <mxPoint x="-10" y="1" as="offset" />
          </mxGeometry>
        </mxCell>
        <mxCell id="rpIl013AEwX_hjBP_hCJ-58" value="Czy można zamienić na hasło zawierające wielkie litery?" style="rhombus;whiteSpace=wrap;html=1;rounded=0;" parent="1" vertex="1">
          <mxGeometry x="20" y="400" width="156" height="80" as="geometry" />
        </mxCell>
        <mxCell id="3Ul-htmzRU0Y6KNiJjNp-6" style="edgeStyle=orthogonalEdgeStyle;rounded=0;orthogonalLoop=1;jettySize=auto;html=1;exitX=1;exitY=0.5;exitDx=0;exitDy=0;entryX=0;entryY=0.5;entryDx=0;entryDy=0;" edge="1" parent="1" source="3Ul-htmzRU0Y6KNiJjNp-4" target="rpIl013AEwX_hjBP_hCJ-47">
          <mxGeometry relative="1" as="geometry" />
        </mxCell>
        <mxCell id="3Ul-htmzRU0Y6KNiJjNp-7" value="NIE" style="edgeLabel;html=1;align=center;verticalAlign=middle;resizable=0;points=[];" vertex="1" connectable="0" parent="3Ul-htmzRU0Y6KNiJjNp-6">
          <mxGeometry x="-0.6034" y="2" relative="1" as="geometry">
            <mxPoint x="-18" y="2" as="offset" />
          </mxGeometry>
        </mxCell>
        <mxCell id="3Ul-htmzRU0Y6KNiJjNp-9" value="" style="edgeStyle=orthogonalEdgeStyle;rounded=0;orthogonalLoop=1;jettySize=auto;html=1;" edge="1" parent="1" source="3Ul-htmzRU0Y6KNiJjNp-4" target="3Ul-htmzRU0Y6KNiJjNp-8">
          <mxGeometry relative="1" as="geometry" />
        </mxCell>
        <mxCell id="3Ul-htmzRU0Y6KNiJjNp-13" value="TAK" style="edgeLabel;html=1;align=center;verticalAlign=middle;resizable=0;points=[];" vertex="1" connectable="0" parent="3Ul-htmzRU0Y6KNiJjNp-9">
          <mxGeometry x="0.1466" y="-1" relative="1" as="geometry">
            <mxPoint as="offset" />
          </mxGeometry>
        </mxCell>
        <mxCell id="3Ul-htmzRU0Y6KNiJjNp-4" value="Czy można zamienić na hasło zawierające znaki specjalne?" style="rhombus;whiteSpace=wrap;html=1;rounded=0;" vertex="1" parent="1">
          <mxGeometry x="20" y="520" width="156" height="80" as="geometry" />
        </mxCell>
        <mxCell id="3Ul-htmzRU0Y6KNiJjNp-10" value="NIE" style="edgeStyle=orthogonalEdgeStyle;rounded=0;orthogonalLoop=1;jettySize=auto;html=1;exitX=1;exitY=0.5;exitDx=0;exitDy=0;entryX=0;entryY=0.5;entryDx=0;entryDy=0;" edge="1" parent="1" source="3Ul-htmzRU0Y6KNiJjNp-8" target="rpIl013AEwX_hjBP_hCJ-47">
          <mxGeometry x="-0.5385" relative="1" as="geometry">
            <mxPoint as="offset" />
          </mxGeometry>
        </mxCell>
        <mxCell id="3Ul-htmzRU0Y6KNiJjNp-15" value="" style="edgeStyle=orthogonalEdgeStyle;rounded=0;orthogonalLoop=1;jettySize=auto;html=1;" edge="1" parent="1" source="3Ul-htmzRU0Y6KNiJjNp-8" target="3Ul-htmzRU0Y6KNiJjNp-14">
          <mxGeometry relative="1" as="geometry" />
        </mxCell>
        <mxCell id="3Ul-htmzRU0Y6KNiJjNp-16" value="TAK" style="edgeLabel;html=1;align=center;verticalAlign=middle;resizable=0;points=[];" vertex="1" connectable="0" parent="3Ul-htmzRU0Y6KNiJjNp-15">
          <mxGeometry x="0.2" y="1" relative="1" as="geometry">
            <mxPoint x="-1" as="offset" />
          </mxGeometry>
        </mxCell>
        <mxCell id="3Ul-htmzRU0Y6KNiJjNp-8" value="Czy po udanej zmianie hasła spis aktualizuje się?" style="rhombus;whiteSpace=wrap;html=1;rounded=0;" vertex="1" parent="1">
          <mxGeometry x="20" y="630" width="156" height="80" as="geometry" />
        </mxCell>
        <mxCell id="3Ul-htmzRU0Y6KNiJjNp-17" style="edgeStyle=orthogonalEdgeStyle;rounded=0;orthogonalLoop=1;jettySize=auto;html=1;exitX=1;exitY=0.5;exitDx=0;exitDy=0;entryX=0;entryY=0.5;entryDx=0;entryDy=0;" edge="1" parent="1" source="3Ul-htmzRU0Y6KNiJjNp-14" target="rpIl013AEwX_hjBP_hCJ-47">
          <mxGeometry relative="1" as="geometry" />
        </mxCell>
        <mxCell id="3Ul-htmzRU0Y6KNiJjNp-23" value="TAK" style="edgeLabel;html=1;align=center;verticalAlign=middle;resizable=0;points=[];" vertex="1" connectable="0" parent="3Ul-htmzRU0Y6KNiJjNp-17">
          <mxGeometry x="-0.8086" y="2" relative="1" as="geometry">
            <mxPoint x="4" y="2" as="offset" />
          </mxGeometry>
        </mxCell>
        <mxCell id="3Ul-htmzRU0Y6KNiJjNp-19" value="" style="edgeStyle=orthogonalEdgeStyle;rounded=0;orthogonalLoop=1;jettySize=auto;html=1;" edge="1" parent="1" source="3Ul-htmzRU0Y6KNiJjNp-14" target="3Ul-htmzRU0Y6KNiJjNp-18">
          <mxGeometry relative="1" as="geometry" />
        </mxCell>
        <mxCell id="3Ul-htmzRU0Y6KNiJjNp-25" value="NIE" style="edgeLabel;html=1;align=center;verticalAlign=middle;resizable=0;points=[];" vertex="1" connectable="0" parent="3Ul-htmzRU0Y6KNiJjNp-19">
          <mxGeometry x="-0.8" y="-1" relative="1" as="geometry">
            <mxPoint x="1" y="5" as="offset" />
          </mxGeometry>
        </mxCell>
        <mxCell id="3Ul-htmzRU0Y6KNiJjNp-14" value="Czy można usunąć użytkownika nie wybierając go z listy?" style="rhombus;whiteSpace=wrap;html=1;rounded=0;" vertex="1" parent="1">
          <mxGeometry x="20" y="740" width="156" height="80" as="geometry" />
        </mxCell>
        <mxCell id="3Ul-htmzRU0Y6KNiJjNp-20" style="edgeStyle=orthogonalEdgeStyle;rounded=0;orthogonalLoop=1;jettySize=auto;html=1;exitX=1;exitY=0.5;exitDx=0;exitDy=0;entryX=0;entryY=0.5;entryDx=0;entryDy=0;" edge="1" parent="1" source="3Ul-htmzRU0Y6KNiJjNp-18" target="rpIl013AEwX_hjBP_hCJ-47">
          <mxGeometry relative="1" as="geometry" />
        </mxCell>
        <mxCell id="3Ul-htmzRU0Y6KNiJjNp-24" value="NIE" style="edgeLabel;html=1;align=center;verticalAlign=middle;resizable=0;points=[];" vertex="1" connectable="0" parent="3Ul-htmzRU0Y6KNiJjNp-20">
          <mxGeometry x="-0.8618" y="-3" relative="1" as="geometry">
            <mxPoint x="2" y="-3" as="offset" />
          </mxGeometry>
        </mxCell>
        <mxCell id="3Ul-htmzRU0Y6KNiJjNp-27" value="" style="edgeStyle=orthogonalEdgeStyle;rounded=0;orthogonalLoop=1;jettySize=auto;html=1;" edge="1" parent="1" source="3Ul-htmzRU0Y6KNiJjNp-18" target="3Ul-htmzRU0Y6KNiJjNp-26">
          <mxGeometry relative="1" as="geometry" />
        </mxCell>
        <mxCell id="3Ul-htmzRU0Y6KNiJjNp-61" value="TAK" style="edgeLabel;html=1;align=center;verticalAlign=middle;resizable=0;points=[];" vertex="1" connectable="0" parent="3Ul-htmzRU0Y6KNiJjNp-27">
          <mxGeometry x="0.24" y="-1" relative="1" as="geometry">
            <mxPoint as="offset" />
          </mxGeometry>
        </mxCell>
        <mxCell id="3Ul-htmzRU0Y6KNiJjNp-18" value="Czy po wybraniu usera, można go usunąć?" style="rhombus;whiteSpace=wrap;html=1;rounded=0;" vertex="1" parent="1">
          <mxGeometry x="20" y="850" width="156" height="80" as="geometry" />
        </mxCell>
        <mxCell id="3Ul-htmzRU0Y6KNiJjNp-28" style="edgeStyle=orthogonalEdgeStyle;rounded=0;orthogonalLoop=1;jettySize=auto;html=1;exitX=1;exitY=0.5;exitDx=0;exitDy=0;entryX=0;entryY=0.5;entryDx=0;entryDy=0;" edge="1" parent="1" source="3Ul-htmzRU0Y6KNiJjNp-26" target="rpIl013AEwX_hjBP_hCJ-47">
          <mxGeometry relative="1" as="geometry" />
        </mxCell>
        <mxCell id="3Ul-htmzRU0Y6KNiJjNp-29" value="NIE" style="edgeLabel;html=1;align=center;verticalAlign=middle;resizable=0;points=[];" vertex="1" connectable="0" parent="3Ul-htmzRU0Y6KNiJjNp-28">
          <mxGeometry x="-0.871" y="-4" relative="1" as="geometry">
            <mxPoint x="-4" y="-4" as="offset" />
          </mxGeometry>
        </mxCell>
        <mxCell id="3Ul-htmzRU0Y6KNiJjNp-26" value="Czy po usunięciu użytkownika, lista się aktualizuje?" style="rhombus;whiteSpace=wrap;html=1;rounded=0;" vertex="1" parent="1">
          <mxGeometry x="20" y="960" width="156" height="80" as="geometry" />
        </mxCell>
        <mxCell id="3Ul-htmzRU0Y6KNiJjNp-32" style="edgeStyle=orthogonalEdgeStyle;rounded=0;orthogonalLoop=1;jettySize=auto;html=1;exitX=0;exitY=1;exitDx=0;exitDy=0;" edge="1" parent="1" source="3Ul-htmzRU0Y6KNiJjNp-31">
          <mxGeometry relative="1" as="geometry">
            <mxPoint x="510" y="160" as="targetPoint" />
          </mxGeometry>
        </mxCell>
        <mxCell id="3Ul-htmzRU0Y6KNiJjNp-34" value="TAK" style="edgeLabel;html=1;align=center;verticalAlign=middle;resizable=0;points=[];" vertex="1" connectable="0" parent="3Ul-htmzRU0Y6KNiJjNp-32">
          <mxGeometry x="0.4513" relative="1" as="geometry">
            <mxPoint as="offset" />
          </mxGeometry>
        </mxCell>
        <mxCell id="3Ul-htmzRU0Y6KNiJjNp-59" style="edgeStyle=orthogonalEdgeStyle;rounded=0;orthogonalLoop=1;jettySize=auto;html=1;exitX=1;exitY=1;exitDx=0;exitDy=0;entryX=0.5;entryY=0;entryDx=0;entryDy=0;" edge="1" parent="1" source="3Ul-htmzRU0Y6KNiJjNp-31" target="3Ul-htmzRU0Y6KNiJjNp-45">
          <mxGeometry relative="1" as="geometry">
            <Array as="points">
              <mxPoint x="720" y="90" />
            </Array>
          </mxGeometry>
        </mxCell>
        <mxCell id="3Ul-htmzRU0Y6KNiJjNp-60" value="NIE" style="edgeLabel;html=1;align=center;verticalAlign=middle;resizable=0;points=[];" vertex="1" connectable="0" parent="3Ul-htmzRU0Y6KNiJjNp-59">
          <mxGeometry x="-0.4108" y="-3" relative="1" as="geometry">
            <mxPoint as="offset" />
          </mxGeometry>
        </mxCell>
        <mxCell id="3Ul-htmzRU0Y6KNiJjNp-31" value="Czy okno można rozszerzać tak, by nie ucinało elementów formularza" style="rhombus;whiteSpace=wrap;html=1;rounded=0;" vertex="1" parent="1">
          <mxGeometry x="540" y="30" width="156" height="80" as="geometry" />
        </mxCell>
        <mxCell id="3Ul-htmzRU0Y6KNiJjNp-36" value="NIE" style="edgeStyle=orthogonalEdgeStyle;rounded=0;orthogonalLoop=1;jettySize=auto;html=1;" edge="1" parent="1" source="3Ul-htmzRU0Y6KNiJjNp-33" target="3Ul-htmzRU0Y6KNiJjNp-35">
          <mxGeometry relative="1" as="geometry" />
        </mxCell>
        <mxCell id="3Ul-htmzRU0Y6KNiJjNp-46" style="edgeStyle=orthogonalEdgeStyle;rounded=0;orthogonalLoop=1;jettySize=auto;html=1;exitX=1;exitY=0.5;exitDx=0;exitDy=0;" edge="1" parent="1" source="3Ul-htmzRU0Y6KNiJjNp-33" target="3Ul-htmzRU0Y6KNiJjNp-45">
          <mxGeometry relative="1" as="geometry" />
        </mxCell>
        <mxCell id="3Ul-htmzRU0Y6KNiJjNp-50" value="TAK" style="edgeLabel;html=1;align=center;verticalAlign=middle;resizable=0;points=[];" vertex="1" connectable="0" parent="3Ul-htmzRU0Y6KNiJjNp-46">
          <mxGeometry x="-0.6561" relative="1" as="geometry">
            <mxPoint as="offset" />
          </mxGeometry>
        </mxCell>
        <mxCell id="3Ul-htmzRU0Y6KNiJjNp-33" value="Czy aplikacja crashuje się po zamknięciu panelu administratora?" style="rhombus;whiteSpace=wrap;html=1;rounded=0;" vertex="1" parent="1">
          <mxGeometry x="430" y="160" width="156" height="80" as="geometry" />
        </mxCell>
        <mxCell id="3Ul-htmzRU0Y6KNiJjNp-38" value="" style="edgeStyle=orthogonalEdgeStyle;rounded=0;orthogonalLoop=1;jettySize=auto;html=1;" edge="1" parent="1" source="3Ul-htmzRU0Y6KNiJjNp-35" target="3Ul-htmzRU0Y6KNiJjNp-37">
          <mxGeometry relative="1" as="geometry" />
        </mxCell>
        <mxCell id="3Ul-htmzRU0Y6KNiJjNp-58" value="TAK" style="edgeLabel;html=1;align=center;verticalAlign=middle;resizable=0;points=[];" vertex="1" connectable="0" parent="3Ul-htmzRU0Y6KNiJjNp-38">
          <mxGeometry x="0.24" relative="1" as="geometry">
            <mxPoint as="offset" />
          </mxGeometry>
        </mxCell>
        <mxCell id="3Ul-htmzRU0Y6KNiJjNp-47" style="edgeStyle=orthogonalEdgeStyle;rounded=0;orthogonalLoop=1;jettySize=auto;html=1;exitX=1;exitY=0.5;exitDx=0;exitDy=0;entryX=0.5;entryY=0;entryDx=0;entryDy=0;" edge="1" parent="1" source="3Ul-htmzRU0Y6KNiJjNp-35" target="3Ul-htmzRU0Y6KNiJjNp-45">
          <mxGeometry relative="1" as="geometry" />
        </mxCell>
        <mxCell id="3Ul-htmzRU0Y6KNiJjNp-51" value="NIE" style="edgeLabel;html=1;align=center;verticalAlign=middle;resizable=0;points=[];" vertex="1" connectable="0" parent="3Ul-htmzRU0Y6KNiJjNp-47">
          <mxGeometry x="-0.4227" y="-1" relative="1" as="geometry">
            <mxPoint as="offset" />
          </mxGeometry>
        </mxCell>
        <mxCell id="3Ul-htmzRU0Y6KNiJjNp-35" value="Czy po zamknięciu panelu adm. okno główne ładuje się poprawnie?" style="rhombus;whiteSpace=wrap;html=1;rounded=0;" vertex="1" parent="1">
          <mxGeometry x="430" y="280" width="156" height="80" as="geometry" />
        </mxCell>
        <mxCell id="3Ul-htmzRU0Y6KNiJjNp-42" value="" style="edgeStyle=orthogonalEdgeStyle;rounded=0;orthogonalLoop=1;jettySize=auto;html=1;" edge="1" parent="1" source="3Ul-htmzRU0Y6KNiJjNp-37" target="3Ul-htmzRU0Y6KNiJjNp-41">
          <mxGeometry relative="1" as="geometry" />
        </mxCell>
        <mxCell id="3Ul-htmzRU0Y6KNiJjNp-57" value="TAK" style="edgeLabel;html=1;align=center;verticalAlign=middle;resizable=0;points=[];" vertex="1" connectable="0" parent="3Ul-htmzRU0Y6KNiJjNp-42">
          <mxGeometry x="0.2" relative="1" as="geometry">
            <mxPoint as="offset" />
          </mxGeometry>
        </mxCell>
        <mxCell id="3Ul-htmzRU0Y6KNiJjNp-48" style="edgeStyle=orthogonalEdgeStyle;rounded=0;orthogonalLoop=1;jettySize=auto;html=1;exitX=1;exitY=0.5;exitDx=0;exitDy=0;entryX=0;entryY=0.5;entryDx=0;entryDy=0;" edge="1" parent="1" source="3Ul-htmzRU0Y6KNiJjNp-37" target="3Ul-htmzRU0Y6KNiJjNp-45">
          <mxGeometry relative="1" as="geometry" />
        </mxCell>
        <mxCell id="3Ul-htmzRU0Y6KNiJjNp-52" value="NIE" style="edgeLabel;html=1;align=center;verticalAlign=middle;resizable=0;points=[];" vertex="1" connectable="0" parent="3Ul-htmzRU0Y6KNiJjNp-48">
          <mxGeometry x="-0.1892" relative="1" as="geometry">
            <mxPoint as="offset" />
          </mxGeometry>
        </mxCell>
        <mxCell id="3Ul-htmzRU0Y6KNiJjNp-37" value="Czy przycisk zamykania okna głównego działa poprawnie?" style="rhombus;whiteSpace=wrap;html=1;rounded=0;" vertex="1" parent="1">
          <mxGeometry x="430" y="390" width="156" height="80" as="geometry" />
        </mxCell>
        <mxCell id="3Ul-htmzRU0Y6KNiJjNp-44" style="edgeStyle=orthogonalEdgeStyle;rounded=0;orthogonalLoop=1;jettySize=auto;html=1;exitX=0.5;exitY=1;exitDx=0;exitDy=0;entryX=0.5;entryY=0;entryDx=0;entryDy=0;" edge="1" parent="1" source="3Ul-htmzRU0Y6KNiJjNp-41" target="3Ul-htmzRU0Y6KNiJjNp-43">
          <mxGeometry relative="1" as="geometry" />
        </mxCell>
        <mxCell id="3Ul-htmzRU0Y6KNiJjNp-41" value="Uruchom aplikację ponownie" style="whiteSpace=wrap;html=1;rounded=0;" vertex="1" parent="1">
          <mxGeometry x="448" y="500" width="120" height="60" as="geometry" />
        </mxCell>
        <mxCell id="3Ul-htmzRU0Y6KNiJjNp-49" style="edgeStyle=orthogonalEdgeStyle;rounded=0;orthogonalLoop=1;jettySize=auto;html=1;exitX=1;exitY=0.5;exitDx=0;exitDy=0;" edge="1" parent="1" source="3Ul-htmzRU0Y6KNiJjNp-43" target="3Ul-htmzRU0Y6KNiJjNp-45">
          <mxGeometry relative="1" as="geometry" />
        </mxCell>
        <mxCell id="3Ul-htmzRU0Y6KNiJjNp-53" value="NIE" style="edgeLabel;html=1;align=center;verticalAlign=middle;resizable=0;points=[];" vertex="1" connectable="0" parent="3Ul-htmzRU0Y6KNiJjNp-49">
          <mxGeometry x="-0.5915" relative="1" as="geometry">
            <mxPoint as="offset" />
          </mxGeometry>
        </mxCell>
        <mxCell id="3Ul-htmzRU0Y6KNiJjNp-43" value="Czy przycisk zamykania okna logowania działa poprawnie?" style="rhombus;whiteSpace=wrap;html=1;rounded=0;" vertex="1" parent="1">
          <mxGeometry x="430" y="590" width="156" height="80" as="geometry" />
        </mxCell>
        <mxCell id="3Ul-htmzRU0Y6KNiJjNp-45" value="Zgłoś błąd, opisz go w rejestrz&lt;span style=&quot;white-space: pre;&quot;&gt;e,  napisz &lt;br/&gt;czy pojawił się&lt;br/&gt; komunikat &lt;br&gt;o błędzie &lt;/span&gt;" style="whiteSpace=wrap;html=1;rounded=0;" vertex="1" parent="1">
          <mxGeometry x="660" y="380" width="120" height="100" as="geometry" />
        </mxCell>
        <mxCell id="3Ul-htmzRU0Y6KNiJjNp-54" value="TEST ZAKOŃCZONY POMYŚLNIE!" style="shape=umlActor;verticalLabelPosition=bottom;verticalAlign=top;html=1;" vertex="1" parent="1">
          <mxGeometry x="583" y="760" width="70" height="140" as="geometry" />
        </mxCell>
        <mxCell id="3Ul-htmzRU0Y6KNiJjNp-55" style="edgeStyle=orthogonalEdgeStyle;rounded=0;orthogonalLoop=1;jettySize=auto;html=1;exitX=0.5;exitY=1;exitDx=0;exitDy=0;entryX=0.5;entryY=0;entryDx=0;entryDy=0;entryPerimeter=0;" edge="1" parent="1" source="3Ul-htmzRU0Y6KNiJjNp-43" target="3Ul-htmzRU0Y6KNiJjNp-54">
          <mxGeometry relative="1" as="geometry" />
        </mxCell>
        <mxCell id="3Ul-htmzRU0Y6KNiJjNp-56" value="TAK" style="edgeLabel;html=1;align=center;verticalAlign=middle;resizable=0;points=[];" vertex="1" connectable="0" parent="3Ul-htmzRU0Y6KNiJjNp-55">
          <mxGeometry x="-0.09" y="-2" relative="1" as="geometry">
            <mxPoint x="14" as="offset" />
          </mxGeometry>
        </mxCell>
      </root>
    </mxGraphModel>
  </diagram>
</mxfile>
